<?xml version="1.0" encoding="UTF-8" standalone="no"?>
<svg
   xmlns:dc="http://purl.org/dc/elements/1.1/"
   xmlns:cc="http://creativecommons.org/ns#"
   xmlns:rdf="http://www.w3.org/1999/02/22-rdf-syntax-ns#"
   xmlns:svg="http://www.w3.org/2000/svg"
   xmlns="http://www.w3.org/2000/svg"
   xmlns:sodipodi="http://sodipodi.sourceforge.net/DTD/sodipodi-0.dtd"
   xmlns:inkscape="http://www.inkscape.org/namespaces/inkscape"
   width="120"
   height="180"
   viewBox="0 0 31.749999 47.625001"
   version="1.1"
   id="svg920"
   inkscape:export-filename="/Users/ozguryilmaz/Desktop/3.png"
   inkscape:export-xdpi="96"
   inkscape:export-ydpi="96"
   inkscape:version="1.0.2 (e86c8708, 2021-01-15)"
   sodipodi:docname="kanizsa.svg">
  <defs
     id="defs914">
    <inkscape:path-effect
       effect="spiro"
       id="path-effect1756"
       is_visible="true"
       lpeversion="1" />
    <inkscape:path-effect
       effect="spiro"
       id="path-effect1733"
       is_visible="true"
       lpeversion="1" />
    <inkscape:path-effect
       effect="spiro"
       id="path-effect1724"
       is_visible="true"
       lpeversion="1" />
    <inkscape:path-effect
       effect="spiro"
       id="path-effect1700"
       is_visible="true"
       lpeversion="1" />
    <inkscape:path-effect
       effect="spiro"
       id="path-effect1676"
       is_visible="true"
       lpeversion="1" />
    <inkscape:path-effect
       effect="spiro"
       id="path-effect1653"
       is_visible="true"
       lpeversion="1" />
    <inkscape:path-effect
       effect="spiro"
       id="path-effect1648"
       is_visible="true"
       lpeversion="1" />
    <inkscape:path-effect
       effect="spiro"
       id="path-effect1625"
       is_visible="true"
       lpeversion="1" />
    <marker
       style="overflow:visible;"
       id="Arrow1Send"
       refX="0.0"
       refY="0.0"
       orient="auto"
       inkscape:stockid="Arrow1Send"
       inkscape:isstock="true">
      <path
         transform="scale(0.2) rotate(180) translate(6,0)"
         style="fill-rule:evenodd;stroke:#000000;stroke-width:1pt;stroke-opacity:1;fill:#000000;fill-opacity:1"
         d="M 0.0,0.0 L 5.0,-5.0 L -12.5,0.0 L 5.0,5.0 L 0.0,0.0 z "
         id="path1107" />
    </marker>
    <marker
       style="overflow:visible;"
       id="Arrow1Mend"
       refX="0.0"
       refY="0.0"
       orient="auto"
       inkscape:stockid="Arrow1Mend"
       inkscape:isstock="true">
      <path
         transform="scale(0.4) rotate(180) translate(10,0)"
         style="fill-rule:evenodd;stroke:#000000;stroke-width:1pt;stroke-opacity:1;fill:#000000;fill-opacity:1"
         d="M 0.0,0.0 L 5.0,-5.0 L -12.5,0.0 L 5.0,5.0 L 0.0,0.0 z "
         id="path1101" />
    </marker>
    <inkscape:path-effect
       effect="spiro"
       id="path-effect1380"
       is_visible="true"
       lpeversion="1" />
    <marker
       style="overflow:visible;"
       id="Arrow1Lend"
       refX="0.0"
       refY="0.0"
       orient="auto"
       inkscape:stockid="Arrow1Lend"
       inkscape:isstock="true">
      <path
         transform="scale(0.8) rotate(180) translate(12.5,0)"
         style="fill-rule:evenodd;stroke:#000000;stroke-width:1pt;stroke-opacity:1;fill:#000000;fill-opacity:1"
         d="M 0.0,0.0 L 5.0,-5.0 L -12.5,0.0 L 5.0,5.0 L 0.0,0.0 z "
         id="path1095" />
    </marker>
    <marker
       style="overflow:visible"
       id="Arrow1Lstart"
       refX="0.0"
       refY="0.0"
       orient="auto"
       inkscape:stockid="Arrow1Lstart"
       inkscape:isstock="true">
      <path
         transform="scale(0.8) translate(12.5,0)"
         style="fill-rule:evenodd;stroke:#000000;stroke-width:1.0pt"
         d="M 0.0,0.0 L 5.0,-5.0 L -12.5,0.0 L 5.0,5.0 L 0.0,0.0 z "
         id="path1092" />
    </marker>
  </defs>
  <sodipodi:namedview
     id="base"
     pagecolor="#ffffff"
     bordercolor="#666666"
     borderopacity="1.0"
     inkscape:pageopacity="0.0"
     inkscape:pageshadow="2"
     inkscape:zoom="2.5504861"
     inkscape:cx="47.270505"
     inkscape:cy="74.093256"
     inkscape:document-units="mm"
     inkscape:current-layer="layer1"
     inkscape:document-rotation="0"
     showgrid="false"
     units="px"
     inkscape:window-width="1440"
     inkscape:window-height="770"
     inkscape:window-x="0"
     inkscape:window-y="25"
     inkscape:window-maximized="0" />
  <metadata
     id="metadata917">
    <rdf:RDF>
      <cc:Work
         rdf:about="">
        <dc:format>image/svg+xml</dc:format>
        <dc:type
           rdf:resource="http://purl.org/dc/dcmitype/StillImage" />
        <dc:title />
      </cc:Work>
    </rdf:RDF>
  </metadata>
  <g
     inkscape:label="Layer 1"
     inkscape:groupmode="layer"
     id="layer1">
    <path
       d="m 7.9508725,23.751497 -3.694923,6.399921 h 7.3900825 l 0.18504,0.320502 H 3.701158 l 4.065075,-7.041028 z"
       id="path33"
       style="stroke-width:0.264583" />
    <path
       d="m 23.47087,23.431238 4.065017,7.041027 h -8.129915 l 0.18504,-0.320501 h 7.390083 l -3.694924,-6.39992 z"
       id="path35"
       style="stroke-width:0.264583" />
    <path
       d="m 11.553068,16.870894 4.065075,-7.041029 4.065074,7.041029 h -0.37008 l -3.694983,-6.39992 -3.694982,6.39992 z"
       id="path37"
       style="stroke-width:0.264583" />
    <path
       d="m 17.298364,34.122059 -1.680104,2.910023 -1.680045,-2.909964 a 3.3602077,3.3602077 0 0 0 -1.680103,2.909964 3.3602077,3.3602077 0 0 0 3.360148,3.360148 3.3602077,3.3602077 0 0 0 3.360149,-3.360148 3.3602077,3.3602077 0 0 0 -1.680045,-2.910023 z"
       id="path39"
       style="stroke-width:0.264583" />
    <path
       d="m 27.25817,13.510804 a 3.3602077,3.3602077 0 0 0 -3.360148,3.360207 h 3.360148 l -1.680045,2.909962 a 3.3602077,3.3602077 0 0 0 1.680045,0.450204 3.3602077,3.3602077 0 0 0 3.360149,-3.360148 3.3602077,3.3602077 0 0 0 -3.360149,-3.360209 z"
       id="path41"
       style="stroke-width:0.264583" />
    <path
       d="m 3.9784675,13.510804 a 3.3602077,3.3602077 0 0 0 -3.3601485,3.360207 3.3602077,3.3602077 0 0 0 3.3601485,3.360148 3.3602077,3.3602077 0 0 0 1.680105,-0.450204 L 3.9785275,16.870993 H 7.338676 A 3.3602077,3.3602077 0 0 0 3.9784675,13.510786 Z"
       id="path43"
       style="stroke-width:0.264583" />
  </g>
</svg>
